<svg width="24" height="8" viewBox="0 0 24 8" fill="none" xmlns="http://www.w3.org/2000/svg">
<path d="M3.074 2.11L3.729 2.583L2.119 4.603L3.984 6.84L3.338 7.34L1.137 4.648L3.074 2.11ZM0.837 7.212H0V0.182L0.837 0V7.212ZM21.78 2.83C21.3433 2.83 21.0083 2.99333 20.775 3.32C20.5417 3.648 20.425 4.12733 20.425 4.758C20.425 5.38267 20.5417 5.854 20.775 6.172C21.0083 6.49 21.3433 6.64933 21.78 6.65C22.222 6.65 22.56 6.49067 22.794 6.172C23.0273 5.854 23.144 5.38267 23.144 4.758C23.144 4.12733 23.0273 3.64833 22.794 3.321C22.56 2.99367 22.222 2.83 21.78 2.83ZM21.78 2.157C22.4707 2.157 23.013 2.38133 23.407 2.83C23.8017 3.278 23.999 3.92067 23.999 4.758C23.999 5.58267 23.8033 6.216 23.412 6.658C23.0213 7.10133 22.4773 7.323 21.78 7.323C21.0887 7.323 20.546 7.10167 20.152 6.659C19.758 6.21567 19.5607 5.582 19.56 4.758C19.56 3.92067 19.7587 3.278 20.156 2.83C20.5533 2.38133 21.0947 2.157 21.78 2.157ZM16.246 6.622C16.3664 6.62138 16.4862 6.60627 16.603 6.577C16.7294 6.54578 16.8537 6.50637 16.975 6.459C17.0965 6.41117 17.2131 6.35155 17.323 6.281C17.4263 6.21568 17.5233 6.14104 17.613 6.058V4.894H16.743C16.303 4.894 15.9817 4.97 15.779 5.122C15.577 5.27267 15.476 5.512 15.476 5.84C15.476 6.36133 15.7327 6.622 16.246 6.622ZM14.676 5.877C14.676 5.373 14.844 4.98967 15.18 4.727C15.5167 4.46233 16.0063 4.33 16.649 4.33H17.613V4.012C17.613 3.242 17.2733 2.857 16.594 2.857C16.376 2.857 16.1473 2.88733 15.908 2.948C15.6687 3.00867 15.4487 3.08433 15.248 3.175L15.003 2.585C15.2517 2.445 15.52 2.337 15.808 2.261C16.0953 2.18567 16.3753 2.14767 16.648 2.147C17.8253 2.147 18.414 2.77467 18.414 4.03V7.213H17.794L17.694 6.668C17.446 6.868 17.181 7.02267 16.899 7.132C16.617 7.24067 16.3487 7.295 16.094 7.295C15.6507 7.295 15.3037 7.16933 15.053 6.918C14.801 6.666 14.676 6.319 14.676 5.877ZM13.025 2.111L13.68 2.584L12.07 4.604L13.934 6.841L13.289 7.341L11.088 4.649L13.025 2.111ZM10.788 7.213H9.951V0.183L10.788 0.0010004V7.213ZM6.294 6.623C6.40867 6.623 6.528 6.60767 6.652 6.577C6.77775 6.5457 6.90134 6.50628 7.022 6.459C7.14422 6.41129 7.26145 6.35167 7.372 6.281C7.47528 6.21568 7.57235 6.14104 7.662 6.058V4.894H6.792C6.352 4.894 6.03033 4.97 5.827 5.122C5.625 5.27267 5.524 5.512 5.524 5.84C5.524 6.362 5.78067 6.62267 6.294 6.622M4.724 5.877C4.724 5.373 4.89233 4.98967 5.229 4.727C5.565 4.46233 6.05433 4.33 6.697 4.33H7.662V4.012C7.662 3.242 7.322 2.857 6.642 2.857C6.42467 2.857 6.196 2.88733 5.956 2.948C5.716 3.00867 5.496 3.08433 5.296 3.175L5.051 2.585C5.29967 2.445 5.568 2.337 5.856 2.261C6.144 2.18567 6.42433 2.148 6.697 2.148C7.87367 2.148 8.462 2.77533 8.462 4.03V7.213H7.844L7.744 6.668C7.494 6.868 7.22867 7.02267 6.948 7.132C6.66667 7.24067 6.398 7.295 6.142 7.295C5.7 7.295 5.35333 7.16933 5.102 6.918C4.85 6.666 4.724 6.319 4.724 5.877Z" fill="black"/>
</svg>
